<svg width="32" height="32" viewBox="0 0 32 32" fill="none" xmlns="http://www.w3.org/2000/svg">
<path opacity="0.01" fill-rule="evenodd" clip-rule="evenodd" d="M16 32C24.8366 32 32 24.8366 32 16C32 7.16344 24.8366 0 16 0C7.16344 0 0 7.16344 0 16C0 24.8366 7.16344 32 16 32Z" fill="#EEEEEE"/>
<path fill-rule="evenodd" clip-rule="evenodd" d="M15.9878 4.30383C12.7321 4.30383 12.3238 4.3175 11.0453 4.37492C9.76929 4.43264 8.89791 4.63254 8.13514 4.9251C7.34714 5.22768 6.67852 5.63234 6.01206 6.29036C5.3456 6.94839 4.93575 7.60854 4.62929 8.38657C4.33298 9.13968 4.13021 10 4.07206 11.2599C4.01391 12.5225 4.00006 12.9253 4.00006 16.1398C4.00006 19.3543 4.01391 19.7574 4.07206 21.0197C4.13021 22.2798 4.33298 23.1402 4.62929 23.8927C4.93575 24.6713 5.3456 25.3315 6.01206 25.9895C6.67852 26.6475 7.34714 27.0522 8.13514 27.3545C8.89791 27.647 9.76929 27.8472 11.0453 27.9049C12.3238 27.9624 12.7321 27.976 15.9878 27.976C19.2434 27.976 19.6518 27.9624 20.9302 27.9049C22.2062 27.8472 23.0776 27.647 23.8404 27.3545C24.6287 27.0522 25.297 26.6475 25.9634 25.9895C26.6299 25.3315 27.0398 24.6713 27.3462 23.8927C27.6425 23.1402 27.8453 22.2798 27.9034 21.0197C27.9619 19.7574 27.9754 19.3543 27.9754 16.1398C27.9754 12.9253 27.9619 12.5225 27.9034 11.2599C27.8453 10 27.6425 9.13968 27.3462 8.38657C27.0398 7.60854 26.6299 6.94839 25.9634 6.29036C25.297 5.63234 24.6287 5.22768 23.8404 4.9251C23.0776 4.63254 22.2062 4.43264 20.9302 4.37492C19.6518 4.3175 19.2434 4.30383 15.9878 4.30383M15.9878 6.43649C19.1887 6.43649 19.5678 6.44864 20.8321 6.50545C22.0007 6.55801 22.6354 6.75092 23.0579 6.91315C23.6173 7.12763 24.0167 7.38434 24.4364 7.79842C24.8558 8.21249 25.1154 8.60682 25.333 9.15912C25.497 9.57624 25.6924 10.203 25.7456 11.3571C25.8034 12.6051 25.8154 12.9797 25.8154 16.1398C25.8154 19.3002 25.8034 19.6748 25.7456 20.9225C25.6924 22.0766 25.497 22.7033 25.333 23.1204C25.1154 23.673 24.8558 24.0674 24.4364 24.4815C24.0167 24.8955 23.6173 25.1519 23.0579 25.3667C22.6354 25.5286 22.0007 25.7216 20.8321 25.7744C19.5681 25.8312 19.189 25.8431 15.9878 25.8431C12.7868 25.8431 12.4078 25.8312 11.1438 25.7744C9.97483 25.7216 9.34037 25.5286 8.9176 25.3667C8.35821 25.1519 7.95883 24.8955 7.53945 24.4815C7.12006 24.0674 6.86006 23.673 6.64252 23.1204C6.47852 22.7033 6.28314 22.0766 6.22991 20.9225C6.17237 19.6748 6.16006 19.3002 6.16006 16.1398C6.16006 12.9797 6.17237 12.6051 6.22991 11.3571C6.28314 10.203 6.47852 9.57624 6.64252 9.15912C6.86006 8.60682 7.12006 8.21249 7.53945 7.79842C7.95883 7.38434 8.35821 7.12763 8.9176 6.91315C9.34037 6.75092 9.97483 6.55801 11.1438 6.50545C12.4078 6.44864 12.7868 6.43649 15.9878 6.43649" fill="#808080"/>
<path fill-rule="evenodd" clip-rule="evenodd" d="M15.9877 20.0852C13.781 20.0852 11.992 18.3189 11.992 16.1398C11.992 13.9609 13.781 12.1944 15.9877 12.1944C18.1945 12.1944 19.9837 13.9609 19.9837 16.1398C19.9837 18.3189 18.1945 20.0852 15.9877 20.0852M15.9877 10.062C12.588 10.062 9.83203 12.7831 9.83203 16.1398C9.83203 19.4967 12.588 22.2179 15.9877 22.2179C19.3874 22.2179 22.1437 19.4967 22.1437 16.1398C22.1437 12.7831 19.3874 10.062 15.9877 10.062" fill="#808080"/>
<path fill-rule="evenodd" clip-rule="evenodd" d="M23.8255 9.82174C23.8255 10.6061 23.1815 11.2423 22.387 11.2423C21.5925 11.2423 20.9482 10.6061 20.9482 9.82174C20.9482 9.03734 21.5925 8.40149 22.387 8.40149C23.1815 8.40149 23.8255 9.03734 23.8255 9.82174" fill="#808080"/>
</svg>
