<svg width="47" height="58" viewBox="0 0 47 58" fill="none" xmlns="http://www.w3.org/2000/svg">
<path fill-rule="evenodd" clip-rule="evenodd" d="M42.7808 2.13689C43.8707 2.13689 44.7563 3.01877 44.7563 4.10415V39.4808C44.7563 43.0082 42.6786 46.2983 39.5109 47.8246L23.4341 55.5579L7.3572 47.8246C4.15545 46.2983 2.11179 43.0082 2.11179 39.4808V4.07023C2.11179 2.98485 2.99738 2.10298 4.08733 2.10298H42.7808V2.13689ZM42.7808 0.101807H4.05327C1.8393 0.101807 0.0340576 1.89947 0.0340576 4.10415V39.4808C0.0340576 43.7884 2.55458 47.7907 6.43755 49.6562L23.4 57.8305L40.3624 49.6562C44.2454 47.7907 46.7659 43.7884 46.7659 39.4808V4.07023C46.7659 1.86555 44.9948 0.101807 42.7808 0.101807Z" fill="#F01616"/>
<path fill-rule="evenodd" clip-rule="evenodd" d="M38.8978 46.6375L23.4 54.0995L7.90218 46.6375C5.14323 45.3147 3.37205 42.4995 3.37205 39.4468V4.74859C3.37205 4.00239 3.98515 3.42578 4.70043 3.42578H42.0655C42.8148 3.42578 43.3939 4.03631 43.3939 4.74859V39.4468C43.4279 42.4995 41.6908 45.3147 38.8978 46.6375Z" fill="#F01616"/>
<path fill-rule="evenodd" clip-rule="evenodd" d="M38.5913 9.09012H36.8201H35.2873V10.4129H32.4603L31.0297 11.8375V16.8913H24.7965V15.365H26.6358L28.0664 13.9404V11.1252H29.3948V9.5989V7.83515V6.30884H27.862H25.4777H23.945V7.83515V9.5989V11.1252H25.2734V12.6176H21.5266V11.1252H22.855V9.5989V7.83515V6.30884H21.3223H18.938H17.4052V7.83515V9.5989V11.1252H18.7336V13.9404L20.1642 15.365H22.0035V16.8913H15.7703V11.8375L14.3397 10.4129H11.5127V9.09012H9.97991H8.20873H6.67598V10.6164V12.9907V14.517H8.20873H9.97991H11.5127V13.1942H13.0114V16.9252H11.5127V15.6024H9.97991H8.20873H6.67598V17.1287V19.503V21.0293H8.20873H9.97991H11.5127V19.7065H13.0114V23.4375H11.5127V22.0468H9.97991H8.20873H6.67598V23.5732V25.9474V27.4738H8.20873H9.97991H11.5127V26.117H14.3397L15.7703 24.6925V19.6387H18.8358V31.2047H15.3616L13.931 32.6293V35.5802H12.0917L10.6611 37.0047V39.82H9.33275V41.3463V43.11V44.6363H10.8655H13.2498H14.7825V43.0761V41.3123V39.786H13.4541V38.3276H17.2009V39.82H15.8725V41.3463V43.11V44.6363H17.3712H19.7555H21.2882V43.0761V41.3123V39.786H19.9598V36.9708L18.5293 35.5463H16.69V33.9182H30.1441V35.5463H28.3048L26.8742 36.9708V39.786H25.5458V41.3123V43.0761V44.6024H27.0786H29.4629H30.9956V43.0761V41.3123V39.786H29.6332V38.3276H33.3799V39.82H32.0515V41.3463V43.11V44.6363H33.5843H35.9686H37.5013V43.0761V41.3123V39.786H36.1729V36.9708L34.7424 35.5463H32.9031V32.5954L31.4725 31.1708H27.9983V19.6387H31.0638V24.6925L32.4943 26.117H35.3214V27.4398H36.8541H38.6253H40.1581V25.9135V23.5392V22.0468H38.6253H36.8541H35.3214V23.3697H33.8227V19.6387H35.3214V20.9615H36.8541H38.6253H40.1581V19.4352V17.0609V15.5346H38.6253H36.8541H35.3214V16.8574H33.8227V13.1264H35.3214V14.4492H36.8541H38.6253H40.1581V12.9229V10.5486V9.02229H38.5913V9.09012ZM25.4777 7.86907H27.862V9.63281H25.4777V7.86907ZM18.972 7.86907H21.3563V9.63281H18.972V7.86907ZM10.014 12.9907H8.24279V10.6164H10.014V12.9907ZM10.014 19.4691H8.24279V17.0948H10.014V19.4691ZM10.014 25.9135H8.24279V23.5392H10.014V25.9135ZM13.2498 43.0761H10.8655V41.3123H13.2498V43.0761ZM19.7555 43.0761H17.3712V41.3123H19.7555V43.0761ZM29.4629 43.0761H27.0786V41.3123H29.4629V43.0761ZM35.9345 43.0761H33.5502V41.3123H35.9345V43.0761ZM25.2393 31.2047H21.5948V19.6387H25.2734V31.2047H25.2393ZM36.8201 23.5392H38.5913V25.9135H36.8201V23.5392ZM36.8201 17.0948H38.5913V19.4691H36.8201V17.0948ZM38.5913 12.9907H36.8201V10.6164H38.5913V12.9907Z" fill="white"/>
</svg>
