<svg width="96" height="64" viewBox="0 0 96 64" fill="none" xmlns="http://www.w3.org/2000/svg">
<g filter="url(#filter0_d)">
<path fill-rule="evenodd" clip-rule="evenodd" d="M80.3564 19.6193C72.2865 15.989 63.4865 13.3241 54.1485 11.7793L67.483 52.8331C76.1293 52.2152 84.276 52.9876 91.8463 54.9572C88.0419 43.1779 84.1992 31.3986 80.3564 19.6193Z" fill="url(#paint0_linear)"/>
<path fill-rule="evenodd" clip-rule="evenodd" d="M87.4271 41.4013C79.6646 38.7751 71.2874 37.3075 62.3721 37.0758L63.3712 40.1655C72.2481 40.2041 80.5869 41.5558 88.2725 44.0275C88.0419 43.1779 87.7345 42.2896 87.4271 41.4013Z" fill="url(#paint1_linear)"/>
<path fill-rule="evenodd" clip-rule="evenodd" d="M80.3564 19.6193C72.2481 15.989 63.4865 13.2855 54.1485 11.7793L55.1476 14.869C64.4472 16.2207 73.1703 18.7696 81.2402 22.2841C80.9328 21.3958 80.6638 20.5076 80.3564 19.6193Z" fill="url(#paint2_linear)"/>
<path fill-rule="evenodd" clip-rule="evenodd" d="M82.1241 25.0648C74.0926 21.6661 65.4463 19.3103 56.2236 18.113L57.2228 21.2027C66.407 22.2455 75.0149 24.4468 83.0079 27.7296C82.7005 26.8413 82.4315 25.953 82.1241 25.0648Z" fill="url(#paint3_linear)"/>
<path fill-rule="evenodd" clip-rule="evenodd" d="M83.8918 30.5103C75.9756 27.3821 67.3677 25.2966 58.2603 24.4469L59.2594 27.5366C68.3284 28.2317 76.8594 30.1628 84.7372 33.1752C84.4682 32.2869 84.1992 31.3986 83.8918 30.5103Z" fill="url(#paint4_linear)"/>
<path fill-rule="evenodd" clip-rule="evenodd" d="M85.6594 35.9559C77.8201 33.0593 69.3276 31.2828 60.297 30.7421L61.2961 33.8317C70.2498 34.2179 78.704 35.84 86.5049 38.5821C86.2359 37.7324 85.9669 36.8441 85.6594 35.9559Z" fill="url(#paint5_linear)"/>
<path fill-rule="evenodd" clip-rule="evenodd" d="M89.2332 46.8469C81.5861 44.491 73.2856 43.2938 64.4472 43.4097L65.4463 46.4993C74.2079 46.229 82.4699 47.2717 90.0786 49.5117C89.8097 48.6235 89.5022 47.7352 89.2332 46.8469Z" fill="url(#paint6_linear)"/>
<path fill-rule="evenodd" clip-rule="evenodd" d="M91.0009 52.2924C83.4306 50.2069 75.207 49.28 66.5223 49.7434L67.5214 52.8331C76.1677 52.2151 84.3144 52.9876 91.8847 54.9572C91.5773 54.0689 91.2699 53.1807 91.0009 52.2924Z" fill="url(#paint7_linear)"/>
<path fill-rule="evenodd" clip-rule="evenodd" d="M54.1484 11.7793C53.6104 10.1187 53.0725 4.9821 60.4122 4.94348L75.5528 45.2635C66.5991 45.3021 66.8297 50.8249 67.5214 52.8331L54.1484 11.7793Z" fill="url(#paint8_linear)"/>
<path fill-rule="evenodd" clip-rule="evenodd" d="M64.4471 43.3711C63.8323 41.4401 63.4864 35.9946 72.0943 35.9559L73.2471 39.0456C64.524 39.0842 64.8314 44.5683 65.4847 46.4994L64.4471 43.3711Z" fill="url(#paint9_linear)"/>
<path fill-rule="evenodd" clip-rule="evenodd" d="M62.372 37.0372C61.7572 35.1834 61.4113 29.7765 69.7118 29.7379L70.8646 32.8276C62.4104 32.8662 62.7563 38.2731 63.3711 40.1655L62.372 37.0372Z" fill="url(#paint10_linear)"/>
<path fill-rule="evenodd" clip-rule="evenodd" d="M60.3353 30.7422C59.7205 28.927 59.3362 23.5973 67.4061 23.5587L68.5589 26.6484C60.3353 26.687 60.758 32.0553 61.3344 33.8704L60.3353 30.7422Z" fill="url(#paint11_linear)"/>
<path fill-rule="evenodd" clip-rule="evenodd" d="M58.2602 24.4083C57.6838 22.6317 57.2227 17.3793 65.062 17.3407L66.2148 20.4304C58.2602 20.469 58.6829 25.76 59.2594 27.5366L58.2602 24.4083Z" fill="url(#paint12_linear)"/>
<path fill-rule="evenodd" clip-rule="evenodd" d="M56.2235 18.0745C55.6855 16.3752 55.186 11.1614 62.7563 11.1228L63.9091 14.2125C56.2235 14.2511 56.6847 19.5035 57.2611 21.2028L56.2235 18.0745Z" fill="url(#paint13_linear)"/>
<path fill-rule="evenodd" clip-rule="evenodd" d="M74.3999 42.1738C65.5615 42.2124 65.8305 47.6966 66.4838 49.7049L67.5213 52.8718C66.8681 50.8635 66.5991 45.3407 75.5528 45.3021L74.3999 42.1738Z" fill="url(#paint14_linear)"/>
<path fill-rule="evenodd" clip-rule="evenodd" d="M54.1484 11.7793C53.6104 10.1187 53.0725 4.9821 60.4122 4.94348L61.565 8.03314C54.11 8.07176 54.648 13.2469 55.186 14.9076L54.1484 11.7793Z" fill="url(#paint15_linear)"/>
<path fill-rule="evenodd" clip-rule="evenodd" d="M4.23059 1.58349C11.0323 19.658 17.8341 37.7711 24.6358 55.8456C42.8507 47.3104 60.1048 44.2593 75.5529 45.2635L60.4123 4.94349C43.504 0.115901 24.4821 -1.50617 4.23059 1.58349Z" fill="url(#paint16_linear)"/>
<path fill-rule="evenodd" clip-rule="evenodd" d="M54.1101 25.1807C41.9668 24.7945 28.8629 26.4938 15.1826 30.7807C11.5319 21.0483 7.88125 11.3159 4.23059 1.58348C18.6795 -0.617901 32.4751 -0.424797 45.2332 1.58348C48.2306 9.4621 51.1511 17.3021 54.1101 25.1807Z" fill="url(#paint17_linear)"/>
<path fill-rule="evenodd" clip-rule="evenodd" d="M7.84277 2.08557C8.18862 2.54902 8.49604 2.97385 8.8419 3.4373C9.34146 3.36005 9.84102 3.28281 10.3022 3.24419C9.99473 3.59178 9.72574 3.93936 9.41832 4.24833C9.76417 4.71178 10.0716 5.13661 10.4174 5.60005C9.91788 5.36833 9.41832 5.13661 8.88032 4.90488C8.5729 5.25247 8.3039 5.60005 7.99648 5.98626C7.95805 5.48419 7.95805 4.98212 7.91963 4.48005C7.42006 4.24833 6.88207 4.01661 6.38251 3.78488C6.88207 3.70764 7.38163 3.6304 7.8812 3.55316C7.8812 3.05109 7.8812 2.58764 7.84277 2.08557Z" fill="url(#paint18_linear)"/>
<path fill-rule="evenodd" clip-rule="evenodd" d="M9.91789 7.60828C10.2253 8.07172 10.5712 8.49655 10.8786 8.96C11.3782 8.88276 11.8393 8.80552 12.3389 8.72828C12.0699 9.07586 11.7624 9.42345 11.4934 9.77103C11.8393 10.1959 12.1467 10.6593 12.4926 11.0841C11.993 10.8524 11.4934 10.6207 10.9939 10.4276C10.7249 10.7752 10.4175 11.1614 10.1485 11.509C10.11 11.0069 10.11 10.5048 10.0716 10.0028C9.57204 9.77103 9.07248 9.57793 8.53448 9.34621C9.03405 9.26897 9.53361 9.1531 10.0332 9.07586C9.95632 8.61241 9.95632 8.11035 9.91789 7.60828Z" fill="url(#paint19_linear)"/>
<path fill-rule="evenodd" clip-rule="evenodd" d="M11.993 13.131C12.3004 13.5558 12.6463 14.0193 12.9537 14.4441C13.4533 14.3668 13.9144 14.251 14.414 14.1737C14.145 14.5213 13.8376 14.9075 13.5686 15.2551C13.9144 15.6799 14.2218 16.1434 14.5293 16.5682C14.0297 16.3751 13.5301 16.1434 13.0306 15.9503C12.7616 16.3365 12.4542 16.6841 12.1852 17.0703C12.1467 16.5682 12.1467 16.0662 12.1083 15.5641C11.6087 15.371 11.1092 15.1393 10.6096 14.9462C11.1092 14.8303 11.5703 14.7531 12.0699 14.6372C12.0315 14.1351 12.0315 13.6331 11.993 13.131Z" fill="url(#paint20_linear)"/>
<path fill-rule="evenodd" clip-rule="evenodd" d="M14.0681 18.6538C14.3756 19.0786 14.7214 19.5421 15.0288 19.9669C15.49 19.8511 15.9895 19.7352 16.4507 19.6579C16.1817 20.0442 15.9127 20.3917 15.6053 20.7779C15.9127 21.2028 16.2585 21.6276 16.566 22.0911C16.0664 21.8979 15.5668 21.7048 15.0673 21.4731C14.7983 21.8593 14.5293 22.2455 14.2218 22.6317C14.1834 22.1297 14.1834 21.6276 14.145 21.0869C13.6454 20.8938 13.1459 20.7007 12.6463 20.5076C13.1459 20.3917 13.607 20.2759 14.1066 20.16C14.145 19.6579 14.1066 19.1559 14.0681 18.6538Z" fill="url(#paint21_linear)"/>
<path fill-rule="evenodd" clip-rule="evenodd" d="M16.1432 24.1765C16.4506 24.6013 16.7965 25.0262 17.1039 25.4896C17.5651 25.3738 18.0646 25.2579 18.5258 25.142C18.2568 25.5282 17.9878 25.9144 17.7188 26.3007C18.0262 26.7255 18.372 27.1503 18.6795 27.5751C18.1799 27.382 17.7188 27.1889 17.2192 26.9958C16.9502 27.382 16.6812 27.8069 16.4122 28.1931C16.3738 27.691 16.3738 27.1503 16.3354 26.6482C15.8358 26.4551 15.3362 26.262 14.8367 26.1075C15.2978 25.9917 15.7974 25.8372 16.2585 25.7213C16.2201 25.1807 16.1816 24.6786 16.1432 24.1765Z" fill="url(#paint22_linear)"/>
<path fill-rule="evenodd" clip-rule="evenodd" d="M12.7616 4.32556C13.069 4.75039 13.4148 5.21384 13.7223 5.63866C14.1834 5.56142 14.683 5.5228 15.1441 5.44556C14.8751 5.75453 14.5677 6.10211 14.2987 6.41108C14.6061 6.83591 14.9519 7.29935 15.2594 7.72418C14.7598 7.49246 14.2602 7.26073 13.7607 7.02901C13.4917 7.3766 13.1843 7.72418 12.9153 8.07177C12.8768 7.5697 12.8768 7.10625 12.8384 6.60418C12.3388 6.37246 11.8393 6.14073 11.3397 5.90901C11.8393 5.83177 12.3004 5.79315 12.8 5.71591C12.8 5.29108 12.8 4.78901 12.7616 4.32556Z" fill="url(#paint23_linear)"/>
<path fill-rule="evenodd" clip-rule="evenodd" d="M14.7982 9.73242C15.1056 10.1572 15.4515 10.6207 15.7589 11.0455C16.22 10.9683 16.7196 10.891 17.1807 10.8138C16.9117 11.1614 16.6427 11.4704 16.3353 11.8179C16.6427 12.2428 16.9886 12.7062 17.296 13.131C16.7965 12.8993 16.3353 12.6676 15.8358 12.4745C15.5668 12.8221 15.2978 13.1697 14.9903 13.5172C14.9519 13.0152 14.9519 12.5517 14.9135 12.0497C14.4139 11.8179 13.9144 11.6248 13.4148 11.3931C13.9144 11.3159 14.3755 11.2386 14.8751 11.1614C14.8366 10.6979 14.8366 10.2345 14.7982 9.73242Z" fill="url(#paint24_linear)"/>
<path fill-rule="evenodd" clip-rule="evenodd" d="M16.8349 15.1393C17.1423 15.5641 17.4882 16.0276 17.7956 16.4524C18.2567 16.3751 18.7179 16.2979 19.2174 16.182C18.9484 16.5296 18.6794 16.8772 18.4104 17.2248C18.7179 17.6496 19.0637 18.0745 19.3711 18.4993C18.8716 18.2676 18.4104 18.0745 17.9109 17.8427C17.6419 18.1903 17.3729 18.5765 17.1039 18.9241C17.0655 18.422 17.0655 17.92 17.027 17.4565C16.5275 17.2634 16.0279 17.0317 15.5668 16.8386C16.0279 16.7614 16.5275 16.6455 16.9886 16.5682C16.8733 16.1434 16.8733 15.6414 16.8349 15.1393Z" fill="url(#paint25_linear)"/>
<path fill-rule="evenodd" clip-rule="evenodd" d="M18.8716 20.5848C19.179 21.0097 19.4864 21.4345 19.8323 21.8979C20.2934 21.7821 20.7545 21.7048 21.2157 21.589C20.9467 21.9366 20.6777 22.3228 20.4087 22.6704C20.7161 23.0952 21.0235 23.52 21.3694 23.9448C20.9082 23.7517 20.4087 23.52 19.9091 23.3269C19.6401 23.7131 19.3711 24.0607 19.1021 24.4469C19.0637 23.9448 19.0637 23.4428 19.0253 22.9407C18.5257 22.7476 18.0646 22.5545 17.565 22.3614C18.0261 22.2455 18.5257 22.1683 18.9868 22.0524C18.91 21.5504 18.8716 21.0483 18.8716 20.5848Z" fill="url(#paint26_linear)"/>
<path fill-rule="evenodd" clip-rule="evenodd" d="M15.5284 1.27454C15.8358 1.69936 16.1432 2.16281 16.4891 2.58764C16.9502 2.54902 17.4114 2.5104 17.9109 2.47178C17.6419 2.78074 17.3729 3.08971 17.0655 3.39867C17.3729 3.8235 17.6804 4.28695 18.0262 4.71178C17.5266 4.48005 17.0655 4.20971 16.5659 3.97798C16.2969 4.28695 16.028 4.59592 15.7205 4.9435C15.6821 4.48005 15.6821 4.01661 15.6437 3.55316C15.1441 3.32143 14.6445 3.05109 14.1834 2.81936C14.6445 2.78074 15.1441 2.74212 15.6052 2.7035C15.6052 2.20143 15.5668 1.73798 15.5284 1.27454Z" fill="url(#paint27_linear)"/>
<path fill-rule="evenodd" clip-rule="evenodd" d="M17.5266 6.60425C17.834 7.02908 18.1415 7.49252 18.4489 7.91735C18.91 7.87873 19.3712 7.80149 19.8323 7.76287C19.5633 8.07183 19.2943 8.3808 19.0253 8.72839C19.3327 9.15321 19.6402 9.57804 19.986 10.0415C19.5249 9.80977 19.0253 9.57804 18.5257 9.34632C18.2567 9.65528 17.9878 10.0029 17.7188 10.3505C17.6803 9.88701 17.6803 9.38494 17.6419 8.92149C17.1423 8.68977 16.6812 8.45804 16.1816 8.22632C16.6428 8.1877 17.1423 8.11046 17.6035 8.07183C17.6035 7.53114 17.565 7.0677 17.5266 6.60425Z" fill="url(#paint28_linear)"/>
<path fill-rule="evenodd" clip-rule="evenodd" d="M19.5249 11.8953C19.8323 12.3201 20.1398 12.7449 20.4472 13.2084C20.9083 13.1311 21.3695 13.0925 21.8306 13.0153C21.5616 13.3242 21.2926 13.6718 21.0236 13.9808C21.331 14.4056 21.6384 14.8304 21.9459 15.2553C21.4847 15.0235 20.9852 14.7918 20.524 14.5601C20.255 14.9077 19.986 15.2553 19.717 15.5642C19.6786 15.1008 19.6786 14.5987 19.6402 14.1353C19.1406 13.9035 18.6795 13.7104 18.1799 13.4787C18.6411 13.4015 19.1022 13.3242 19.6018 13.2856C19.6018 12.8608 19.5633 12.3587 19.5249 11.8953Z" fill="url(#paint29_linear)"/>
<path fill-rule="evenodd" clip-rule="evenodd" d="M21.5232 17.2249C21.8306 17.6497 22.138 18.0745 22.4454 18.4993C22.9066 18.4221 23.3677 18.3449 23.8288 18.2676C23.5598 18.6152 23.2908 18.9242 23.0219 19.2717C23.3293 19.6966 23.6367 20.1214 23.9441 20.5462C23.483 20.3145 22.9834 20.1214 22.5223 19.8897C22.2533 20.2373 21.9843 20.5849 21.7153 20.9324C21.6769 20.469 21.6769 19.9669 21.6384 19.5035C21.1773 19.3104 20.6777 19.0786 20.2166 18.8855C20.6777 18.8083 21.1389 18.7311 21.6 18.6538C21.6 18.1518 21.5616 17.6883 21.5232 17.2249Z" fill="url(#paint30_linear)"/>
<path fill-rule="evenodd" clip-rule="evenodd" d="M23.5214 22.516C23.8288 22.9408 24.1363 23.3656 24.4437 23.7905C24.9048 23.7132 25.3275 23.5974 25.7887 23.5201C25.5197 23.8677 25.2507 24.2153 25.0201 24.5629C25.3275 24.9877 25.635 25.4125 25.9424 25.8374C25.4812 25.6443 25.0201 25.4125 24.5205 25.2194C24.2515 25.567 23.9826 25.9532 23.752 26.3008C23.7136 25.7987 23.7136 25.3353 23.6751 24.8332C23.214 24.6401 22.7144 24.447 22.2533 24.2153C22.7144 24.1381 23.1756 24.0222 23.6367 23.945C23.5983 23.4815 23.5598 23.0181 23.5214 22.516Z" fill="url(#paint31_linear)"/>
<path fill-rule="evenodd" clip-rule="evenodd" d="M20.255 3.63049C20.5624 4.05532 20.8698 4.51877 21.1772 4.9436C21.6384 4.90498 22.0995 4.86636 22.5607 4.86636C22.2917 5.17532 22.0227 5.44567 21.7537 5.75463C22.0611 6.17946 22.3685 6.60429 22.6759 7.02911C22.2148 6.79739 21.7152 6.52704 21.2541 6.29532C20.9851 6.60429 20.7161 6.91325 20.4471 7.22222C20.4087 6.75877 20.4087 6.29532 20.3703 5.83187C19.9091 5.60015 19.4096 5.3298 18.9484 5.09808C19.4096 5.05946 19.8707 5.02084 20.3318 4.98222C20.2934 4.55739 20.2934 4.09394 20.255 3.63049Z" fill="url(#paint32_linear)"/>
<path fill-rule="evenodd" clip-rule="evenodd" d="M22.2149 8.84424C22.5223 9.26907 22.8297 9.69389 23.1371 10.1187C23.5983 10.0801 24.0594 10.0415 24.4821 10.0029C24.2131 10.3118 23.9441 10.6208 23.6751 10.9298C23.9825 11.3546 24.29 11.7794 24.5974 12.2042C24.1362 11.9725 23.6751 11.7408 23.1755 11.5091C22.9066 11.818 22.6376 12.127 22.3686 12.4746C22.3301 12.0111 22.3301 11.5477 22.2917 11.0842C21.8306 10.8525 21.331 10.6208 20.8699 10.3891C21.331 10.3504 21.7921 10.3118 22.2533 10.2346C22.2533 9.77113 22.2149 9.30769 22.2149 8.84424Z" fill="url(#paint33_linear)"/>
<path fill-rule="evenodd" clip-rule="evenodd" d="M24.1746 14.058C24.4821 14.4828 24.7895 14.9076 25.0969 15.3325C25.558 15.2938 25.9808 15.2166 26.4419 15.178C26.1729 15.4869 25.9039 15.7959 25.6733 16.1049C25.9808 16.5297 26.2882 16.9545 26.5956 17.3794C26.1345 17.1476 25.6733 16.9159 25.2122 16.6842C24.9432 16.9932 24.6742 17.3407 24.4436 17.6497C24.4052 17.1863 24.4052 16.7228 24.3668 16.2594C23.9056 16.0276 23.4061 15.7959 22.9449 15.6028C23.4061 15.5256 23.8672 15.4869 24.3284 15.4097C24.2131 14.9849 24.1746 14.5214 24.1746 14.058Z" fill="url(#paint34_linear)"/>
<path fill-rule="evenodd" clip-rule="evenodd" d="M26.1345 19.2719C26.4419 19.6967 26.7493 20.1215 27.0568 20.5463C27.5179 20.4691 27.9406 20.3919 28.4017 20.3532C28.1327 20.6622 27.9022 21.0098 27.6332 21.3187C27.9406 21.7436 28.248 22.1684 28.5554 22.5932C28.0943 22.3615 27.6332 22.1684 27.172 21.9367C26.903 22.2843 26.6725 22.5932 26.4035 22.9408C26.365 22.4774 26.365 22.0139 26.3266 21.5505C25.8655 21.3187 25.4043 21.1256 24.9048 20.8939C25.3659 20.8167 25.7886 20.7394 26.2498 20.6622C26.1729 20.1987 26.1345 19.7353 26.1345 19.2719Z" fill="url(#paint35_linear)"/>
<path fill-rule="evenodd" clip-rule="evenodd" d="M22.9065 0.927002C23.2139 1.35183 23.5214 1.77666 23.8288 2.24011C24.2899 2.24011 24.7126 2.20148 25.1738 2.20148C24.9048 2.47183 24.6358 2.74217 24.3668 3.01252C24.6742 3.43735 24.9816 3.86217 25.2891 4.287C24.8279 4.01666 24.3668 3.78493 23.9057 3.51459C23.6367 3.78493 23.3677 4.0939 23.0987 4.36424C23.0602 3.93942 23.0602 3.47597 23.0218 3.05114C22.5607 2.7808 22.0995 2.54907 21.6 2.27873C22.0611 2.27873 22.5222 2.24011 22.9834 2.24011C22.945 1.77666 22.945 1.35183 22.9065 0.927002Z" fill="url(#paint36_linear)"/>
<path fill-rule="evenodd" clip-rule="evenodd" d="M24.8279 6.0249C25.1353 6.44973 25.4427 6.87456 25.7117 7.29939C26.1729 7.26076 26.5956 7.26076 27.0567 7.22214C26.7877 7.49249 26.5187 7.80145 26.2882 8.0718C26.5956 8.49663 26.903 8.92145 27.2104 9.34628C26.7493 9.11456 26.2882 8.84421 25.827 8.61249C25.558 8.92145 25.3275 9.1918 25.0585 9.50076C25.02 9.03732 25.02 8.61249 24.9816 8.14904C24.5205 7.91732 24.0593 7.64697 23.5982 7.41525C24.0593 7.37663 24.5205 7.37663 24.9432 7.33801C24.8663 6.91318 24.8663 6.48835 24.8279 6.0249Z" fill="url(#paint37_linear)"/>
<path fill-rule="evenodd" clip-rule="evenodd" d="M26.7493 11.1228C27.0567 11.5476 27.3641 11.9725 27.6331 12.3973C28.0558 12.3587 28.517 12.32 28.9397 12.2814C28.6707 12.5904 28.4401 12.8607 28.1711 13.1697C28.4786 13.5945 28.786 14.0194 29.055 14.4442C28.5938 14.2125 28.1327 13.9807 27.6716 13.7104C27.4026 14.0194 27.172 14.3283 26.903 14.6373C26.8646 14.1738 26.8646 13.749 26.8262 13.2856C26.365 13.0538 25.9039 12.8221 25.4427 12.5904C25.9039 12.5518 26.3266 12.5131 26.7877 12.4745C26.7877 12.0497 26.7877 11.5863 26.7493 11.1228Z" fill="url(#paint38_linear)"/>
<path fill-rule="evenodd" clip-rule="evenodd" d="M28.6707 16.2594C28.9781 16.6842 29.2471 17.1091 29.5546 17.5339C29.9773 17.4953 30.4384 17.4566 30.8611 17.3794C30.5921 17.6884 30.3615 17.9973 30.0925 18.3063C30.4 18.7311 30.7074 19.156 30.9764 19.5422C30.5153 19.3104 30.0541 19.0787 29.6314 18.847C29.3624 19.156 29.1318 19.4649 28.8628 19.8125C28.8244 19.3491 28.8244 18.8856 28.786 18.4608C28.3249 18.2291 27.8637 17.9973 27.4026 17.8042C27.8637 17.7656 28.2864 17.6884 28.7476 17.6497C28.7476 17.1477 28.7091 16.7228 28.6707 16.2594Z" fill="url(#paint39_linear)"/>
<path fill-rule="evenodd" clip-rule="evenodd" d="M30.5921 21.3573C30.8995 21.7821 31.1685 22.207 31.4759 22.5932C31.8986 22.5159 32.3213 22.4773 32.7825 22.4001C32.5519 22.709 32.2829 23.018 32.0523 23.327C32.3598 23.7518 32.6288 24.138 32.9362 24.5628C32.4751 24.3311 32.0523 24.138 31.5912 23.9063C31.3606 24.2152 31.0916 24.5628 30.8611 24.8718C30.8227 24.4083 30.8227 23.9449 30.7842 23.4814C30.3231 23.2497 29.862 23.0566 29.4008 22.8249C29.8235 22.7476 30.2847 22.709 30.7074 22.6318C30.6689 22.2842 30.6305 21.8207 30.5921 21.3573Z" fill="url(#paint40_linear)"/>
<path fill-rule="evenodd" clip-rule="evenodd" d="M27.4026 3.39868C27.7101 3.82351 27.9791 4.24834 28.2865 4.67316C28.7092 4.67316 29.1703 4.67316 29.593 4.67316C29.324 4.94351 29.0935 5.21385 28.8245 5.4842C29.1319 5.90903 29.4009 6.33385 29.7083 6.75868C29.2472 6.48834 28.786 6.25661 28.3633 5.98627C28.0943 6.25661 27.8638 6.52696 27.5948 6.7973C27.5564 6.37247 27.5564 5.94765 27.5179 5.4842C27.0568 5.21385 26.5957 4.98213 26.1345 4.71179C26.5957 4.71179 27.0184 4.71179 27.4795 4.67316C27.4411 4.24834 27.4411 3.82351 27.4026 3.39868Z" fill="url(#paint41_linear)"/>
<path fill-rule="evenodd" clip-rule="evenodd" d="M29.2856 8.41943C29.593 8.84426 29.862 9.26909 30.1694 9.69392C30.5921 9.6553 31.0148 9.6553 31.476 9.6553C31.207 9.92564 30.9764 10.196 30.7074 10.4663C31.0148 10.8912 31.2838 11.316 31.5913 11.7408C31.1301 11.5091 30.7074 11.2387 30.2463 11.007C29.9773 11.2774 29.7467 11.5863 29.4777 11.8567C29.4393 11.4318 29.4393 10.9684 29.4009 10.5436C28.9397 10.3118 28.4786 10.0415 28.0175 9.80978C28.4402 9.77116 28.9013 9.77116 29.324 9.73254C29.3624 9.26909 29.324 8.84426 29.2856 8.41943Z" fill="url(#paint42_linear)"/>
<path fill-rule="evenodd" clip-rule="evenodd" d="M31.1686 13.4401C31.476 13.8649 31.745 14.2897 32.0524 14.7145C32.4751 14.6759 32.8978 14.6759 33.3205 14.6373C33.09 14.9076 32.821 15.2166 32.5904 15.487C32.8978 15.9118 33.1668 16.3366 33.4742 16.7228C33.0131 16.4911 32.5904 16.2594 32.1293 15.989C31.8987 16.298 31.6297 16.5683 31.3991 16.8773C31.3607 16.4525 31.3607 15.989 31.3223 15.5642C30.8611 15.3325 30.4384 15.1008 29.9773 14.869C30.4 14.8304 30.8611 14.7918 31.2838 14.7918C31.2454 14.2897 31.207 13.8649 31.1686 13.4401Z" fill="url(#paint43_linear)"/>
<path fill-rule="evenodd" clip-rule="evenodd" d="M33.0515 18.4608C33.3589 18.8856 33.6279 19.3105 33.9354 19.6967C34.3581 19.6581 34.7808 19.6194 35.2035 19.5808C34.9729 19.8898 34.7039 20.1601 34.4734 20.4691C34.7808 20.8939 35.0498 21.2801 35.3572 21.705C34.9345 21.4732 34.4734 21.2415 34.0506 21.0098C33.8201 21.3187 33.5511 21.6277 33.3205 21.9367C33.2821 21.4732 33.2821 21.0484 33.2437 20.585C32.7825 20.3532 32.3598 20.1215 31.8987 19.8898C32.3214 19.8512 32.7441 19.8125 33.2052 19.7739C33.1284 19.3491 33.0899 18.8856 33.0515 18.4608Z" fill="url(#paint44_linear)"/>
<path fill-rule="evenodd" clip-rule="evenodd" d="M29.9388 0.927002C30.2463 1.35183 30.5153 1.77666 30.8227 2.20148C31.2454 2.20148 31.6681 2.24011 32.0908 2.24011C31.8218 2.47183 31.5912 2.74217 31.3222 2.9739C31.6297 3.39873 31.8987 3.82355 32.2061 4.24838C31.745 3.97804 31.3222 3.70769 30.8611 3.43735C30.5921 3.70769 30.3615 3.93942 30.0925 4.20976C30.0541 3.78493 30.0541 3.36011 30.0157 2.93528C29.5546 2.66493 29.1319 2.39459 28.6707 2.12424C29.0934 2.12424 29.5546 2.12424 29.9773 2.16286C29.9773 1.77666 29.9773 1.35183 29.9388 0.927002Z" fill="url(#paint45_linear)"/>
<path fill-rule="evenodd" clip-rule="evenodd" d="M31.7834 5.87036C32.0908 6.29519 32.3598 6.72002 32.6288 7.14484C33.0515 7.14484 33.4742 7.14484 33.8969 7.14484C33.6663 7.41519 33.3973 7.64691 33.1668 7.91726C33.4742 8.34209 33.7432 8.76691 34.0506 9.15312C33.6279 8.88278 33.1668 8.65105 32.7441 8.38071C32.5135 8.65105 32.2445 8.9214 32.0139 9.19174C31.9755 8.76691 31.9755 8.34209 31.9371 7.91726C31.4759 7.64691 31.0532 7.41519 30.5921 7.14484C31.0148 7.14484 31.4375 7.14484 31.8987 7.14484C31.8602 6.72002 31.8218 6.29519 31.7834 5.87036Z" fill="url(#paint46_linear)"/>
<path fill-rule="evenodd" clip-rule="evenodd" d="M33.6279 10.8138C33.8969 11.2387 34.2043 11.6635 34.4733 12.0497C34.896 12.0497 35.3187 12.0111 35.7414 12.0111C35.5109 12.2814 35.2419 12.5518 35.0113 12.7835C35.3187 13.2083 35.5877 13.5945 35.8952 14.0194C35.4725 13.7876 35.0113 13.5173 34.5886 13.2856C34.358 13.5559 34.089 13.8263 33.8585 14.0966C33.8201 13.6718 33.8201 13.2469 33.7816 12.8221C33.3205 12.5904 32.8978 12.32 32.4366 12.0883C32.8594 12.0883 33.2821 12.0497 33.7048 12.0497C33.7048 11.6635 33.6663 11.2387 33.6279 10.8138Z" fill="url(#paint47_linear)"/>
<path fill-rule="evenodd" clip-rule="evenodd" d="M35.5109 15.7186C35.7799 16.1435 36.0873 16.5297 36.3563 16.9545C36.779 16.9159 37.2017 16.9159 37.586 16.8772C37.3554 17.1476 37.0864 17.4179 36.8559 17.6883C37.1249 18.1131 37.4323 18.4993 37.7013 18.9241C37.2786 18.6924 36.8174 18.4607 36.3947 18.1904C36.1642 18.4607 35.9336 18.7697 35.6646 19.04C35.6262 18.6152 35.6262 18.1904 35.5877 17.7655C35.165 17.5338 34.7039 17.3021 34.2812 17.0704C34.7039 17.0317 35.1266 17.0317 35.5493 16.9931C35.5493 16.6069 35.5109 16.1435 35.5109 15.7186Z" fill="url(#paint48_linear)"/>
<path fill-rule="evenodd" clip-rule="evenodd" d="M37.3555 20.6621C37.6244 21.0869 37.9319 21.4731 38.2009 21.898C38.6236 21.8594 39.0079 21.8207 39.4306 21.7821C39.2 22.0525 38.9694 22.3614 38.7004 22.6318C38.9694 23.0566 39.2768 23.4428 39.5458 23.8676C39.1231 23.6359 38.7004 23.4042 38.2393 23.1725C38.0087 23.4814 37.7782 23.7518 37.5476 24.0607C37.5092 23.6359 37.5092 23.2111 37.4707 22.7476C37.048 22.5159 36.5869 22.2842 36.1642 22.0525C36.5869 22.0138 37.0096 21.9752 37.4323 21.9366C37.3939 21.5118 37.3939 21.0869 37.3555 20.6621Z" fill="url(#paint49_linear)"/>
<path fill-rule="evenodd" clip-rule="evenodd" d="M34.2428 3.51453C34.5118 3.93935 34.8192 4.36418 35.0882 4.75039C35.5109 4.75039 35.9336 4.78901 36.3563 4.78901C36.1257 5.02073 35.8568 5.25246 35.6262 5.48418C35.8952 5.90901 36.2026 6.29522 36.4716 6.72004C36.0489 6.4497 35.6262 6.17935 35.1651 5.90901C34.9345 6.14073 34.6655 6.41108 34.4349 6.6428C34.3965 6.21797 34.3965 5.83177 34.3581 5.40694C33.9354 5.1366 33.4742 4.86625 33.0515 4.59591C33.4742 4.59591 33.8969 4.63453 34.3196 4.63453C34.2812 4.32556 34.2812 3.93935 34.2428 3.51453Z" fill="url(#paint50_linear)"/>
<path fill-rule="evenodd" clip-rule="evenodd" d="M36.0488 8.34216C36.3178 8.76699 36.6253 9.1532 36.8943 9.57803C37.317 9.57803 37.7012 9.57803 38.124 9.61665C37.8934 9.84837 37.6628 10.1187 37.3938 10.3504C37.6628 10.7753 37.9702 11.1615 38.2392 11.5863C37.8165 11.316 37.3938 11.0842 36.9327 10.8139C36.7021 11.0842 36.4716 11.316 36.2026 11.5863C36.1641 11.1615 36.1641 10.7753 36.1257 10.3504C35.703 10.0801 35.2419 9.84837 34.8192 9.57803C35.2419 9.57803 35.6646 9.57803 36.0873 9.57803C36.1257 9.19182 36.0873 8.76699 36.0488 8.34216Z" fill="url(#paint51_linear)"/>
<path fill-rule="evenodd" clip-rule="evenodd" d="M37.8934 13.2084C38.1624 13.6332 38.4699 14.0194 38.7389 14.4442C39.1616 14.4442 39.5458 14.4442 39.9685 14.4442C39.738 14.676 39.5074 14.9463 39.2384 15.2167C39.5074 15.6415 39.8148 16.0277 40.0838 16.4525C39.6611 16.2208 39.2384 15.9504 38.8157 15.7187C38.5851 15.9891 38.3546 16.2594 38.124 16.5298C38.0856 16.1049 38.0856 15.6801 38.0472 15.2939C37.6244 15.0622 37.2017 14.7918 36.7406 14.5601C37.1633 14.5601 37.586 14.5601 37.9703 14.5215C37.9319 14.0194 37.8934 13.6332 37.8934 13.2084Z" fill="url(#paint52_linear)"/>
<path fill-rule="evenodd" clip-rule="evenodd" d="M39.6995 18.036C39.9685 18.4608 40.2759 18.847 40.5449 19.2719C40.9676 19.2719 41.3519 19.2333 41.7746 19.2333C41.5441 19.5036 41.3135 19.7739 41.0829 20.0057C41.3519 20.3919 41.6593 20.8167 41.9283 21.2029C41.5056 20.9712 41.0829 20.7395 40.6602 20.4691C40.4296 20.7395 40.1991 21.0098 39.9685 21.2801C39.9301 20.8553 39.9301 20.4305 39.8917 20.0057C39.469 19.7739 39.0462 19.5422 38.6235 19.3105C39.0462 19.2719 39.4305 19.2719 39.8532 19.2719C39.7764 18.8857 39.7379 18.4608 39.6995 18.036Z" fill="url(#paint53_linear)"/>
<path fill-rule="evenodd" clip-rule="evenodd" d="M36.6637 1.31323C36.9327 1.73806 37.2017 2.16289 37.5092 2.54909C37.9319 2.58772 38.3161 2.62634 38.7388 2.66496C38.5083 2.89668 38.2777 3.08978 38.0087 3.32151C38.2777 3.74634 38.5851 4.13254 38.8541 4.55737C38.4314 4.28703 38.0087 4.01668 37.586 3.74634C37.3554 3.97806 37.1249 4.20978 36.8559 4.44151C36.8175 4.0553 36.8175 3.63047 36.779 3.24427C36.3563 2.97392 35.9336 2.70358 35.4725 2.43323C35.8952 2.47185 36.3179 2.51047 36.7022 2.51047C36.7022 2.12427 36.6637 1.73806 36.6637 1.31323Z" fill="url(#paint54_linear)"/>
<path fill-rule="evenodd" clip-rule="evenodd" d="M38.4315 6.10217C38.7004 6.527 38.9694 6.91321 39.2769 7.33803C39.6996 7.37666 40.0839 7.37666 40.5066 7.41528C40.276 7.647 40.0454 7.87872 39.8149 8.11045C40.0839 8.53528 40.3528 8.92148 40.6603 9.34631C40.2376 9.07597 39.8149 8.80562 39.3921 8.53528C39.1616 8.767 38.931 8.99872 38.7004 9.26907C38.662 8.88286 38.662 8.45803 38.6236 8.07183C38.2009 7.80148 37.7782 7.53114 37.3555 7.26079C37.7782 7.26079 38.1625 7.29941 38.5852 7.33803C38.5083 6.87459 38.4699 6.48838 38.4315 6.10217Z" fill="url(#paint55_linear)"/>
<path fill-rule="evenodd" clip-rule="evenodd" d="M40.2376 10.8525C40.5066 11.2774 40.7756 11.6636 41.083 12.0884C41.4673 12.0884 41.89 12.127 42.2743 12.127C42.0437 12.3587 41.8131 12.5905 41.5826 12.8222C41.8516 13.247 42.1205 13.6332 42.428 14.0581C42.0053 13.7877 41.5826 13.556 41.1599 13.2856C40.9293 13.5174 40.6987 13.7877 40.4681 14.0194C40.4297 13.6332 40.4297 13.2084 40.3913 12.8222C39.9686 12.5518 39.5459 12.3201 39.1232 12.0498C39.5459 12.0498 39.9302 12.0498 40.3529 12.0884C40.276 11.6636 40.2376 11.2387 40.2376 10.8525Z" fill="url(#paint56_linear)"/>
<path fill-rule="evenodd" clip-rule="evenodd" d="M42.0053 15.6028C42.2743 16.0276 42.5432 16.4138 42.8122 16.8386C43.1965 16.8386 43.6192 16.8386 44.0035 16.8386C43.7729 17.0704 43.5424 17.3407 43.3118 17.5724C43.5808 17.9586 43.8498 18.3835 44.1572 18.7697C43.7345 18.538 43.3118 18.2676 42.8891 18.0359C42.6585 18.3062 42.428 18.538 42.1974 18.8083C42.159 18.3835 42.159 17.9973 42.1205 17.5724C41.6978 17.3407 41.2751 17.0704 40.8524 16.8386C41.2367 16.8386 41.6594 16.8386 42.0821 16.8386C42.0821 16.4138 42.0437 15.989 42.0053 15.6028Z" fill="url(#paint57_linear)"/>
<path fill-rule="evenodd" clip-rule="evenodd" d="M43.8113 20.3531C44.0803 20.7394 44.3493 21.1642 44.6183 21.5504C45.0026 21.5504 45.4253 21.5118 45.8096 21.5118C45.579 21.7821 45.3485 22.0138 45.1179 22.2842C45.3869 22.6704 45.6559 23.0952 45.9249 23.4814C45.5022 23.2497 45.1179 23.018 44.6952 22.7476C44.4646 23.018 44.2341 23.2883 44.0035 23.5587C43.9651 23.1338 43.9266 22.7476 43.9266 22.3228C43.5039 22.0911 43.0812 21.8594 42.6585 21.6276C43.0428 21.6276 43.4655 21.589 43.8498 21.589C43.8498 21.1642 43.8498 20.778 43.8113 20.3531Z" fill="url(#paint58_linear)"/>
<path fill-rule="evenodd" clip-rule="evenodd" d="M43.0812 2.0083C43.3502 2.43313 43.6192 2.81934 43.8882 3.24416C44.2725 3.28278 44.6568 3.36002 45.0795 3.39865C44.8489 3.59175 44.6183 3.78485 44.3878 3.97796C44.6568 4.40278 44.9257 4.78899 45.1947 5.1752C44.772 4.90485 44.3878 4.59589 43.9651 4.32554C43.7345 4.51865 43.5039 4.75037 43.2733 4.94347C43.2349 4.55727 43.2349 4.17106 43.1965 3.82347C42.7738 3.55313 42.3511 3.28278 41.9668 2.97382C42.3511 3.01244 42.7738 3.05106 43.1581 3.1283C43.1196 2.78071 43.0812 2.39451 43.0812 2.0083Z" fill="url(#paint59_linear)"/>
<path fill-rule="evenodd" clip-rule="evenodd" d="M44.8104 6.60413C45.0794 6.99033 45.3484 7.41516 45.6174 7.80137C46.0017 7.83999 46.386 7.87861 46.7703 7.91723C46.5397 8.11033 46.3091 8.34206 46.0786 8.53516C46.3475 8.92137 46.6165 9.34619 46.8855 9.7324C46.5013 9.46206 46.0786 9.19171 45.6558 8.92137C45.4253 9.15309 45.1947 9.34619 44.9641 9.57792C44.9257 9.19171 44.9257 8.80551 44.8873 8.4193C44.4646 8.14895 44.0803 7.87861 43.6576 7.60826C44.0419 7.64688 44.4646 7.68551 44.8489 7.72413C44.8489 7.37654 44.8104 6.99033 44.8104 6.60413Z" fill="url(#paint60_linear)"/>
<path fill-rule="evenodd" clip-rule="evenodd" d="M46.5397 11.2C46.8087 11.5862 47.0777 12.011 47.3467 12.3972C47.731 12.4358 48.1152 12.4744 48.4995 12.4744C48.2689 12.6675 48.0768 12.8993 47.8462 13.0924C48.1152 13.4786 48.3842 13.9034 48.6532 14.2896C48.2689 14.0193 47.8462 13.7489 47.462 13.4786C47.2314 13.7103 47.0008 13.9034 46.8087 14.1351C46.7703 13.7489 46.7703 13.3627 46.7318 12.9765C46.3091 12.7062 45.9248 12.4358 45.5021 12.2041C45.8864 12.2427 46.2707 12.2427 46.6934 12.2813C46.5781 11.9724 46.5397 11.5862 46.5397 11.2Z" fill="url(#paint61_linear)"/>
<path fill-rule="evenodd" clip-rule="evenodd" d="M48.269 15.7959C48.538 16.1821 48.807 16.6069 49.076 16.9931C49.4603 17.0318 49.8445 17.0318 50.2288 17.0704C49.9983 17.3021 49.8061 17.4952 49.5756 17.7269C49.8445 18.1131 50.1135 18.4993 50.3825 18.9242C49.9983 18.6538 49.5756 18.4221 49.1913 18.1518C48.9607 18.3835 48.7686 18.6152 48.538 18.8469C48.4996 18.4607 48.4996 18.0745 48.4611 17.6883C48.0769 17.418 47.6542 17.1862 47.2314 16.9159C47.6157 16.9159 48 16.9545 48.3843 16.9931C48.3074 16.5683 48.3074 16.1821 48.269 15.7959Z" fill="url(#paint62_linear)"/>
<path fill-rule="evenodd" clip-rule="evenodd" d="M49.9982 20.3917C50.2672 20.7779 50.5362 21.1641 50.8052 21.589C51.1895 21.589 51.5738 21.6276 51.9196 21.6276C51.6891 21.8593 51.4969 22.091 51.2664 22.3228C51.5354 22.709 51.8044 23.0952 52.0734 23.4814C51.6891 23.211 51.2664 22.9793 50.8821 22.7476C50.6515 22.9793 50.4594 23.211 50.2288 23.4814C50.1904 23.0952 50.1904 22.709 50.152 22.3228C49.7677 22.091 49.345 21.8207 48.9607 21.589C49.345 21.589 49.7293 21.589 50.1135 21.6276C50.0367 21.1641 49.9982 20.7779 49.9982 20.3917Z" fill="url(#paint63_linear)"/>
<path fill-rule="evenodd" clip-rule="evenodd" d="M40.7755 3.97791C41.0445 4.40273 41.3135 4.78894 41.5825 5.21377C41.9668 5.25239 42.3895 5.29101 42.7738 5.32963C42.5432 5.52273 42.3126 5.75446 42.0821 5.94756C42.3511 6.37239 42.6201 6.75859 42.8891 7.18342C42.4663 6.91308 42.0436 6.64273 41.6594 6.37239C41.4288 6.60411 41.1982 6.79722 40.9677 7.02894C40.9292 6.64273 40.9292 6.25653 40.8908 5.87032C40.4681 5.59997 40.0454 5.32963 39.6227 5.05928C40.0454 5.09791 40.4297 5.13653 40.8524 5.17515C40.8139 4.75032 40.8139 4.36411 40.7755 3.97791Z" fill="url(#paint64_linear)"/>
<path fill-rule="evenodd" clip-rule="evenodd" d="M42.5432 8.651C42.8122 9.07583 43.0812 9.46204 43.3502 9.88686C43.7345 9.92548 44.1572 9.92548 44.5415 9.9641C44.3109 10.1958 44.0803 10.3889 43.8498 10.6207C44.1188 11.0069 44.3878 11.4317 44.6568 11.8179C44.234 11.5476 43.8498 11.2772 43.4271 11.0069C43.1965 11.2386 42.9659 11.4703 42.7354 11.702C42.6969 11.3158 42.6969 10.9296 42.6585 10.5434C42.2358 10.2731 41.8131 10.0027 41.3904 9.771C41.7747 9.80962 42.1974 9.80962 42.5816 9.84824C42.5816 9.42341 42.5432 9.03721 42.5432 8.651Z" fill="url(#paint65_linear)"/>
<path fill-rule="evenodd" clip-rule="evenodd" d="M44.2725 13.3241C44.5415 13.7103 44.8105 14.1351 45.0795 14.5213C45.4638 14.5213 45.848 14.56 46.2707 14.56C46.0402 14.7917 45.8096 15.0234 45.579 15.2551C45.848 15.6413 46.117 16.0662 46.386 16.4524C45.9633 16.182 45.579 15.9503 45.1563 15.68C44.9258 15.9117 44.6952 16.1434 44.4646 16.4138C44.4262 16.0275 44.4262 15.6027 44.3878 15.2165C43.9651 14.9462 43.5424 14.7144 43.1581 14.4441C43.5424 14.4441 43.9651 14.4827 44.3493 14.4827C44.3493 14.0965 44.3109 13.7103 44.2725 13.3241Z" fill="url(#paint66_linear)"/>
<path fill-rule="evenodd" clip-rule="evenodd" d="M46.0402 17.9972C46.3092 18.3834 46.5781 18.8082 46.8471 19.1944C47.2314 19.1944 47.6157 19.1944 48 19.2331C47.7694 19.4648 47.5388 19.6965 47.3467 19.9282C47.6157 20.3144 47.8847 20.7393 48.1537 21.1255C47.731 20.8937 47.3467 20.6234 46.924 20.3917C46.6934 20.6234 46.4629 20.8937 46.2707 21.1255C46.2323 20.7393 46.2323 20.3144 46.1939 19.9282C45.7712 19.6965 45.3869 19.4262 44.9642 19.1944C45.3485 19.1944 45.7712 19.1944 46.1554 19.1944C46.117 18.8082 46.0786 18.3834 46.0402 17.9972Z" fill="url(#paint67_linear)"/>
<path fill-rule="evenodd" clip-rule="evenodd" d="M16.7965 35.029C17.2961 36.3807 17.8341 37.7711 18.3336 39.1228C37.1633 32.2869 54.9939 30.6648 70.8646 32.8276L69.7118 29.7766C53.7258 27.3048 35.8183 28.618 16.7965 35.029Z" fill="url(#paint68_linear)"/>
<path fill-rule="evenodd" clip-rule="evenodd" d="M46.5013 4.90475C51.6506 5.63855 56.6847 6.68131 61.5651 7.99441L60.4122 4.94337C55.4934 3.55303 50.4594 2.39441 45.2716 1.58337C45.6559 2.70337 46.0786 3.78475 46.5013 4.90475Z" fill="url(#paint69_linear)"/>
<path fill-rule="evenodd" clip-rule="evenodd" d="M49.0375 11.6634C54.11 12.2041 59.0672 13.0538 63.8707 14.2124L62.7179 11.1614C57.876 9.92549 52.8803 8.99859 47.7694 8.34204C48.2305 9.46204 48.6148 10.5434 49.0375 11.6634Z" fill="url(#paint70_linear)"/>
<path fill-rule="evenodd" clip-rule="evenodd" d="M51.5738 18.4221C56.6078 18.7697 61.4882 19.4262 66.2148 20.4304L65.062 17.3793C60.2969 16.2979 55.3782 15.5642 50.3057 15.1007C50.7668 16.2207 51.1511 17.3021 51.5738 18.4221Z" fill="url(#paint71_linear)"/>
<path fill-rule="evenodd" clip-rule="evenodd" d="M54.1101 25.1806C59.0673 25.3351 63.8708 25.8372 68.559 26.6482L67.4061 23.5972C62.7179 22.7089 57.8376 22.1296 52.8804 21.8593C53.3031 22.9406 53.6874 24.0606 54.1101 25.1806Z" fill="url(#paint72_linear)"/>
<path fill-rule="evenodd" clip-rule="evenodd" d="M19.9476 43.4097C20.4471 44.7614 20.9851 46.1517 21.4847 47.5035C40.007 39.818 57.5301 37.4621 73.2087 39.0455L72.0559 35.9945C56.3004 34.1021 38.6236 36.1104 19.9476 43.4097Z" fill="url(#paint73_linear)"/>
<path fill-rule="evenodd" clip-rule="evenodd" d="M23.0987 51.7517C23.5983 53.1034 24.1362 54.4937 24.6358 55.8455C42.8507 47.3103 60.1048 44.2593 75.5528 45.2634L74.4 42.2124C58.8367 40.9379 41.4673 43.6413 23.0987 51.7517Z" fill="url(#paint74_linear)"/>
</g>
<defs>
<filter id="filter0_d" x="0.230591" y="0.00402832" width="95.6541" height="63.8415" filterUnits="userSpaceOnUse" color-interpolation-filters="sRGB">
<feFlood flood-opacity="0" result="BackgroundImageFix"/>
<feColorMatrix in="SourceAlpha" type="matrix" values="0 0 0 0 0 0 0 0 0 0 0 0 0 0 0 0 0 0 127 0"/>
<feOffset dy="4"/>
<feGaussianBlur stdDeviation="2"/>
<feColorMatrix type="matrix" values="0 0 0 0 0 0 0 0 0 0 0 0 0 0 0 0 0 0 0.25 0"/>
<feBlend mode="normal" in2="BackgroundImageFix" result="effect1_dropShadow"/>
<feBlend mode="normal" in="SourceGraphic" in2="effect1_dropShadow" result="shape"/>
</filter>
<linearGradient id="paint0_linear" x1="57.4552" y1="54.1379" x2="91.1879" y2="51.8836" gradientUnits="userSpaceOnUse">
<stop stop-color="white"/>
<stop offset="1" stop-color="#E6E6E6"/>
</linearGradient>
<linearGradient id="paint1_linear" x1="49.3491" y1="40.5212" x2="53.7566" y2="53.0734" gradientUnits="userSpaceOnUse">
<stop offset="0.00561798" stop-color="#CC2332"/>
<stop offset="1" stop-color="#8A051F"/>
</linearGradient>
<linearGradient id="paint2_linear" x1="56.6025" y1="20.9937" x2="67.9386" y2="36.4622" gradientUnits="userSpaceOnUse">
<stop offset="0.00561798" stop-color="#CC2332"/>
<stop offset="1" stop-color="#8A051F"/>
</linearGradient>
<linearGradient id="paint3_linear" x1="55.0153" y1="25.8103" x2="64.5315" y2="40.9556" gradientUnits="userSpaceOnUse">
<stop offset="0.00561798" stop-color="#CC2332"/>
<stop offset="1" stop-color="#8A051F"/>
</linearGradient>
<linearGradient id="paint4_linear" x1="53.3265" y1="30.5705" x2="61.0311" y2="45.1156" gradientUnits="userSpaceOnUse">
<stop offset="0.00561798" stop-color="#CC2332"/>
<stop offset="1" stop-color="#8A051F"/>
</linearGradient>
<linearGradient id="paint5_linear" x1="51.4512" y1="35.4662" x2="57.4081" y2="49.123" gradientUnits="userSpaceOnUse">
<stop offset="0.00561798" stop-color="#CC2332"/>
<stop offset="1" stop-color="#8A051F"/>
</linearGradient>
<linearGradient id="paint6_linear" x1="47.0324" y1="45.5424" x2="50.1755" y2="56.8913" gradientUnits="userSpaceOnUse">
<stop offset="0.00561798" stop-color="#CC2332"/>
<stop offset="1" stop-color="#8A051F"/>
</linearGradient>
<linearGradient id="paint7_linear" x1="71.975" y1="56.0296" x2="77.8499" y2="44.3709" gradientUnits="userSpaceOnUse">
<stop offset="0.00561798" stop-color="#CC2332"/>
<stop offset="1" stop-color="#8A051F"/>
</linearGradient>
<linearGradient id="paint8_linear" x1="57.1869" y1="47.9626" x2="73.6244" y2="47.4787" gradientUnits="userSpaceOnUse">
<stop stop-color="#B3B3B3"/>
<stop offset="1" stop-color="#808080"/>
</linearGradient>
<linearGradient id="paint9_linear" x1="64.7037" y1="47.2226" x2="74.0412" y2="46.2294" gradientUnits="userSpaceOnUse">
<stop offset="0.00561798" stop-color="#640000"/>
<stop offset="0.9888" stop-color="#320000"/>
</linearGradient>
<linearGradient id="paint10_linear" x1="62.6255" y1="40.8989" x2="71.6776" y2="39.9792" gradientUnits="userSpaceOnUse">
<stop offset="0.00561798" stop-color="#640000"/>
<stop offset="0.9888" stop-color="#320000"/>
</linearGradient>
<linearGradient id="paint11_linear" x1="60.551" y1="34.5494" x2="69.3157" y2="33.6919" gradientUnits="userSpaceOnUse">
<stop offset="0.00561798" stop-color="#640000"/>
<stop offset="0.9888" stop-color="#320000"/>
</linearGradient>
<linearGradient id="paint12_linear" x1="58.4758" y1="28.2088" x2="66.9528" y2="27.4146" gradientUnits="userSpaceOnUse">
<stop offset="0.00561798" stop-color="#640000"/>
<stop offset="0.9888" stop-color="#320000"/>
</linearGradient>
<linearGradient id="paint13_linear" x1="56.4017" y1="21.8707" x2="64.5905" y2="21.1383" gradientUnits="userSpaceOnUse">
<stop offset="0.00561798" stop-color="#640000"/>
<stop offset="0.9888" stop-color="#320000"/>
</linearGradient>
<linearGradient id="paint14_linear" x1="66.7774" y1="53.5822" x2="76.4024" y2="52.5262" gradientUnits="userSpaceOnUse">
<stop offset="0.00561798" stop-color="#640000"/>
<stop offset="0.9888" stop-color="#320000"/>
</linearGradient>
<linearGradient id="paint15_linear" x1="54.3272" y1="15.519" x2="62.2285" y2="14.8421" gradientUnits="userSpaceOnUse">
<stop offset="0.00561798" stop-color="#640000"/>
<stop offset="0.9888" stop-color="#320000"/>
</linearGradient>
<linearGradient id="paint16_linear" x1="14.0698" y1="54.5851" x2="76.5976" y2="39.9421" gradientUnits="userSpaceOnUse">
<stop stop-color="white"/>
<stop offset="1" stop-color="#E6E6E6"/>
</linearGradient>
<linearGradient id="paint17_linear" x1="0.778761" y1="31.4815" x2="55.8122" y2="40.6186" gradientUnits="userSpaceOnUse">
<stop offset="0.00561798" stop-color="#00267D"/>
<stop offset="0.9888" stop-color="#00004F"/>
</linearGradient>
<linearGradient id="paint18_linear" x1="10.1408" y1="30.8322" x2="64.875" y2="35.4208" gradientUnits="userSpaceOnUse">
<stop stop-color="white"/>
<stop offset="1" stop-color="#E6E6E6"/>
</linearGradient>
<linearGradient id="paint19_linear" x1="9.76848" y1="36.6926" x2="64.5226" y2="41.1097" gradientUnits="userSpaceOnUse">
<stop stop-color="white"/>
<stop offset="1" stop-color="#E6E6E6"/>
</linearGradient>
<linearGradient id="paint20_linear" x1="9.39641" y1="42.5692" x2="64.1608" y2="46.8172" gradientUnits="userSpaceOnUse">
<stop stop-color="white"/>
<stop offset="1" stop-color="#E6E6E6"/>
</linearGradient>
<linearGradient id="paint21_linear" x1="9.00215" y1="48.1855" x2="63.7769" y2="52.3522" gradientUnits="userSpaceOnUse">
<stop stop-color="white"/>
<stop offset="1" stop-color="#E6E6E6"/>
</linearGradient>
<linearGradient id="paint22_linear" x1="8.6501" y1="54.3554" x2="63.4314" y2="58.2841" gradientUnits="userSpaceOnUse">
<stop stop-color="white"/>
<stop offset="1" stop-color="#E6E6E6"/>
</linearGradient>
<linearGradient id="paint23_linear" x1="9.97563" y1="32.3341" x2="64.7008" y2="37.0279" gradientUnits="userSpaceOnUse">
<stop stop-color="white"/>
<stop offset="1" stop-color="#E6E6E6"/>
</linearGradient>
<linearGradient id="paint24_linear" x1="9.61375" y1="38.1061" x2="64.3552" y2="42.6162" gradientUnits="userSpaceOnUse">
<stop stop-color="white"/>
<stop offset="1" stop-color="#E6E6E6"/>
</linearGradient>
<linearGradient id="paint25_linear" x1="9.24997" y1="43.8891" x2="64.0132" y2="48.2242" gradientUnits="userSpaceOnUse">
<stop stop-color="white"/>
<stop offset="1" stop-color="#E6E6E6"/>
</linearGradient>
<linearGradient id="paint26_linear" x1="8.88716" y1="49.6834" x2="63.6589" y2="53.8474" gradientUnits="userSpaceOnUse">
<stop stop-color="white"/>
<stop offset="1" stop-color="#E6E6E6"/>
</linearGradient>
<linearGradient id="paint27_linear" x1="10.2291" y1="29.0017" x2="64.9656" y2="33.7062" gradientUnits="userSpaceOnUse">
<stop stop-color="white"/>
<stop offset="1" stop-color="#E6E6E6"/>
</linearGradient>
<linearGradient id="paint28_linear" x1="9.89968" y1="34.9577" x2="64.6535" y2="39.3818" gradientUnits="userSpaceOnUse">
<stop stop-color="white"/>
<stop offset="1" stop-color="#E6E6E6"/>
</linearGradient>
<linearGradient id="paint29_linear" x1="9.47705" y1="39.8121" x2="64.2244" y2="44.3312" gradientUnits="userSpaceOnUse">
<stop stop-color="white"/>
<stop offset="1" stop-color="#E6E6E6"/>
</linearGradient>
<linearGradient id="paint30_linear" x1="9.12386" y1="45.5087" x2="63.8829" y2="49.8453" gradientUnits="userSpaceOnUse">
<stop stop-color="white"/>
<stop offset="1" stop-color="#E6E6E6"/>
</linearGradient>
<linearGradient id="paint31_linear" x1="8.79285" y1="51.5022" x2="63.5644" y2="55.579" gradientUnits="userSpaceOnUse">
<stop stop-color="white"/>
<stop offset="1" stop-color="#E6E6E6"/>
</linearGradient>
<linearGradient id="paint32_linear" x1="10.0998" y1="31.185" x2="64.83" y2="35.8034" gradientUnits="userSpaceOnUse">
<stop stop-color="white"/>
<stop offset="1" stop-color="#E6E6E6"/>
</linearGradient>
<linearGradient id="paint33_linear" x1="9.73275" y1="36.5123" x2="64.4726" y2="41.0337" gradientUnits="userSpaceOnUse">
<stop stop-color="white"/>
<stop offset="1" stop-color="#E6E6E6"/>
</linearGradient>
<linearGradient id="paint34_linear" x1="9.36412" y1="41.8259" x2="64.1105" y2="46.2571" gradientUnits="userSpaceOnUse">
<stop stop-color="white"/>
<stop offset="1" stop-color="#E6E6E6"/>
</linearGradient>
<linearGradient id="paint35_linear" x1="9.01552" y1="47.4532" x2="63.7871" y2="51.7017" gradientUnits="userSpaceOnUse">
<stop stop-color="white"/>
<stop offset="1" stop-color="#E6E6E6"/>
</linearGradient>
<linearGradient id="paint36_linear" x1="10.2538" y1="27.3357" x2="64.96" y2="32.273" gradientUnits="userSpaceOnUse">
<stop stop-color="white"/>
<stop offset="1" stop-color="#E6E6E6"/>
</linearGradient>
<linearGradient id="paint37_linear" x1="9.94264" y1="33.1201" x2="64.6787" y2="37.7517" gradientUnits="userSpaceOnUse">
<stop stop-color="white"/>
<stop offset="1" stop-color="#E6E6E6"/>
</linearGradient>
<linearGradient id="paint38_linear" x1="9.58475" y1="38.3589" x2="64.325" y2="42.8896" gradientUnits="userSpaceOnUse">
<stop stop-color="white"/>
<stop offset="1" stop-color="#E6E6E6"/>
</linearGradient>
<linearGradient id="paint39_linear" x1="9.24614" y1="43.8929" x2="64.0088" y2="48.2336" gradientUnits="userSpaceOnUse">
<stop stop-color="white"/>
<stop offset="1" stop-color="#E6E6E6"/>
</linearGradient>
<linearGradient id="paint40_linear" x1="8.86293" y1="48.8364" x2="63.6221" y2="53.1779" gradientUnits="userSpaceOnUse">
<stop stop-color="white"/>
<stop offset="1" stop-color="#E6E6E6"/>
</linearGradient>
<linearGradient id="paint41_linear" x1="10.1422" y1="29.9346" x2="64.8596" y2="34.675" gradientUnits="userSpaceOnUse">
<stop stop-color="white"/>
<stop offset="1" stop-color="#E6E6E6"/>
</linearGradient>
<linearGradient id="paint42_linear" x1="9.78514" y1="35.0953" x2="64.5268" y2="39.7318" gradientUnits="userSpaceOnUse">
<stop stop-color="white"/>
<stop offset="1" stop-color="#E6E6E6"/>
</linearGradient>
<linearGradient id="paint43_linear" x1="9.45806" y1="40.5298" x2="64.2127" y2="44.97" gradientUnits="userSpaceOnUse">
<stop stop-color="white"/>
<stop offset="1" stop-color="#E6E6E6"/>
</linearGradient>
<linearGradient id="paint44_linear" x1="9.12888" y1="45.9917" x2="63.8978" y2="50.2401" gradientUnits="userSpaceOnUse">
<stop stop-color="white"/>
<stop offset="1" stop-color="#E6E6E6"/>
</linearGradient>
<linearGradient id="paint45_linear" x1="10.3217" y1="26.9392" x2="65.0308" y2="31.7957" gradientUnits="userSpaceOnUse">
<stop stop-color="white"/>
<stop offset="1" stop-color="#E6E6E6"/>
</linearGradient>
<linearGradient id="paint46_linear" x1="9.99965" y1="32.2822" x2="64.7325" y2="36.9319" gradientUnits="userSpaceOnUse">
<stop stop-color="white"/>
<stop offset="1" stop-color="#E6E6E6"/>
</linearGradient>
<linearGradient id="paint47_linear" x1="9.60194" y1="36.7467" x2="64.3268" y2="41.5057" gradientUnits="userSpaceOnUse">
<stop stop-color="white"/>
<stop offset="1" stop-color="#E6E6E6"/>
</linearGradient>
<linearGradient id="paint48_linear" x1="9.28412" y1="42.1166" x2="64.0265" y2="46.6643" gradientUnits="userSpaceOnUse">
<stop stop-color="white"/>
<stop offset="1" stop-color="#E6E6E6"/>
</linearGradient>
<linearGradient id="paint49_linear" x1="8.98822" y1="47.8141" x2="63.7559" y2="52.0624" gradientUnits="userSpaceOnUse">
<stop stop-color="white"/>
<stop offset="1" stop-color="#E6E6E6"/>
</linearGradient>
<linearGradient id="paint50_linear" x1="10.1453" y1="29.0645" x2="64.8564" y2="33.9441" gradientUnits="userSpaceOnUse">
<stop stop-color="white"/>
<stop offset="1" stop-color="#E6E6E6"/>
</linearGradient>
<linearGradient id="paint51_linear" x1="9.80467" y1="34.0621" x2="64.5353" y2="38.828" gradientUnits="userSpaceOnUse">
<stop stop-color="white"/>
<stop offset="1" stop-color="#E6E6E6"/>
</linearGradient>
<linearGradient id="paint52_linear" x1="9.54902" y1="39.9708" x2="64.3049" y2="44.3175" gradientUnits="userSpaceOnUse">
<stop stop-color="white"/>
<stop offset="1" stop-color="#E6E6E6"/>
</linearGradient>
<linearGradient id="paint53_linear" x1="9.16277" y1="44.3296" x2="63.9049" y2="48.7805" gradientUnits="userSpaceOnUse">
<stop stop-color="white"/>
<stop offset="1" stop-color="#E6E6E6"/>
</linearGradient>
<linearGradient id="paint54_linear" x1="10.3845" y1="27.2591" x2="65.1172" y2="31.9186" gradientUnits="userSpaceOnUse">
<stop stop-color="white"/>
<stop offset="1" stop-color="#E6E6E6"/>
</linearGradient>
<linearGradient id="paint55_linear" x1="10.0812" y1="32.4695" x2="64.8262" y2="36.9205" gradientUnits="userSpaceOnUse">
<stop stop-color="white"/>
<stop offset="1" stop-color="#E6E6E6"/>
</linearGradient>
<linearGradient id="paint56_linear" x1="9.68301" y1="36.7635" x2="64.4465" y2="41.3241" gradientUnits="userSpaceOnUse">
<stop stop-color="white"/>
<stop offset="1" stop-color="#E6E6E6"/>
</linearGradient>
<linearGradient id="paint57_linear" x1="9.28289" y1="41.3983" x2="64.1204" y2="45.965" gradientUnits="userSpaceOnUse">
<stop stop-color="white"/>
<stop offset="1" stop-color="#E6E6E6"/>
</linearGradient>
<linearGradient id="paint58_linear" x1="8.94755" y1="46.3133" x2="63.7962" y2="50.7753" gradientUnits="userSpaceOnUse">
<stop stop-color="white"/>
<stop offset="1" stop-color="#E6E6E6"/>
</linearGradient>
<linearGradient id="paint59_linear" x1="10.3733" y1="28.045" x2="65.211" y2="32.5087" gradientUnits="userSpaceOnUse">
<stop stop-color="white"/>
<stop offset="1" stop-color="#E6E6E6"/>
</linearGradient>
<linearGradient id="paint60_linear" x1="10.0243" y1="32.1233" x2="64.8181" y2="36.6943" gradientUnits="userSpaceOnUse">
<stop stop-color="white"/>
<stop offset="1" stop-color="#E6E6E6"/>
</linearGradient>
<linearGradient id="paint61_linear" x1="9.69854" y1="36.8713" x2="64.5144" y2="41.3386" gradientUnits="userSpaceOnUse">
<stop stop-color="white"/>
<stop offset="1" stop-color="#E6E6E6"/>
</linearGradient>
<linearGradient id="paint62_linear" x1="9.41334" y1="41.6304" x2="64.1899" y2="45.9849" gradientUnits="userSpaceOnUse">
<stop stop-color="white"/>
<stop offset="1" stop-color="#E6E6E6"/>
</linearGradient>
<linearGradient id="paint63_linear" x1="9.08263" y1="46.0636" x2="63.8409" y2="50.418" gradientUnits="userSpaceOnUse">
<stop stop-color="white"/>
<stop offset="1" stop-color="#E6E6E6"/>
</linearGradient>
<linearGradient id="paint64_linear" x1="10.2389" y1="30.157" x2="65.0244" y2="34.614" gradientUnits="userSpaceOnUse">
<stop stop-color="white"/>
<stop offset="1" stop-color="#E6E6E6"/>
</linearGradient>
<linearGradient id="paint65_linear" x1="9.82678" y1="34.3797" x2="64.6613" y2="38.95" gradientUnits="userSpaceOnUse">
<stop stop-color="white"/>
<stop offset="1" stop-color="#E6E6E6"/>
</linearGradient>
<linearGradient id="paint66_linear" x1="9.47967" y1="38.8871" x2="64.3069" y2="43.4608" gradientUnits="userSpaceOnUse">
<stop stop-color="white"/>
<stop offset="1" stop-color="#E6E6E6"/>
</linearGradient>
<linearGradient id="paint67_linear" x1="9.13437" y1="43.7412" x2="63.9991" y2="48.2097" gradientUnits="userSpaceOnUse">
<stop stop-color="white"/>
<stop offset="1" stop-color="#E6E6E6"/>
</linearGradient>
<linearGradient id="paint68_linear" x1="33.8033" y1="40.7891" x2="40.5287" y2="19.8493" gradientUnits="userSpaceOnUse">
<stop offset="0.00561798" stop-color="#CC2332"/>
<stop offset="1" stop-color="#8A051F"/>
</linearGradient>
<linearGradient id="paint69_linear" x1="19.1596" y1="17.9309" x2="62.9559" y2="-3.08662" gradientUnits="userSpaceOnUse">
<stop offset="0.00561798" stop-color="#B12332"/>
<stop offset="1" stop-color="#932332"/>
</linearGradient>
<linearGradient id="paint70_linear" x1="24.0846" y1="25.6029" x2="56.6432" y2="-3.23903" gradientUnits="userSpaceOnUse">
<stop offset="0.00561798" stop-color="#CC2332"/>
<stop offset="1" stop-color="#8A051F"/>
</linearGradient>
<linearGradient id="paint71_linear" x1="25.614" y1="31.5041" x2="53.756" y2="1.97754" gradientUnits="userSpaceOnUse">
<stop offset="0.00561798" stop-color="#CC2332"/>
<stop offset="1" stop-color="#8A051F"/>
</linearGradient>
<linearGradient id="paint72_linear" x1="27.2908" y1="37.4039" x2="50.5982" y2="7.98766" gradientUnits="userSpaceOnUse">
<stop offset="0.00561798" stop-color="#CC2332"/>
<stop offset="1" stop-color="#8A051F"/>
</linearGradient>
<linearGradient id="paint73_linear" x1="32.3554" y1="49.7134" x2="43.3221" y2="25.0163" gradientUnits="userSpaceOnUse">
<stop offset="0.00561798" stop-color="#CC2332"/>
<stop offset="1" stop-color="#8A051F"/>
</linearGradient>
<linearGradient id="paint74_linear" x1="31.3937" y1="58.6159" x2="48.0317" y2="30.8513" gradientUnits="userSpaceOnUse">
<stop offset="0.00561798" stop-color="#CC2332"/>
<stop offset="1" stop-color="#8A051F"/>
</linearGradient>
</defs>
</svg>
