<svg width="234" height="58" viewBox="0 0 234 58" fill="none" xmlns="http://www.w3.org/2000/svg">
<path fill-rule="evenodd" clip-rule="evenodd" d="M57.0183 17.0082H74.2192V22.0281H62.8768V25.2503H73.1292V29.8971H62.8768V33.2889H74.3554V38.3088H56.9843V17.0082H57.0183Z" fill="black"/>
<path fill-rule="evenodd" clip-rule="evenodd" d="M77.3869 17.0082H83.3135V33.1193H93.6681V38.3088H77.3869V17.0082Z" fill="black"/>
<path fill-rule="evenodd" clip-rule="evenodd" d="M96.2227 17.0082H113.424V22.0281H102.081V25.2503H112.334V29.8971H102.081V33.2889H113.56V38.3088H96.1887V17.0082H96.2227Z" fill="black"/>
<path fill-rule="evenodd" clip-rule="evenodd" d="M115.297 27.6585C115.297 21.4515 120.1 16.5673 126.571 16.5673C130.931 16.5673 133.656 18.4667 135.563 21.0784L131.238 24.4363C130.011 22.91 128.581 21.9602 126.537 21.9602C123.54 21.9602 121.428 24.4702 121.428 27.6585C121.428 30.8468 123.54 33.3567 126.537 33.3567C128.751 33.3567 130.079 32.3053 131.374 30.779L135.836 33.9333C133.826 36.7146 131.101 38.7497 126.367 38.7497C120.202 38.7497 115.297 34.069 115.297 27.6585Z" fill="black"/>
<path fill-rule="evenodd" clip-rule="evenodd" d="M143.568 22.1977H137.164V17.0082H155.932V22.1977H149.528V38.3088H143.602V22.1977H143.568Z" fill="black"/>
<path fill-rule="evenodd" clip-rule="evenodd" d="M158.486 17.0082H168.603C171.872 17.0082 174.121 17.8561 175.585 19.2807C176.845 20.5357 177.493 22.1637 177.493 24.3345C177.493 27.5906 175.755 29.7614 173.099 30.8807L178.208 38.3088H171.327L167.036 31.8643H164.447V38.3088H158.521V17.0082H158.486ZM168.33 27.2175C170.34 27.2175 171.498 26.2339 171.498 24.6398C171.498 22.9778 170.272 22.1298 168.296 22.1298H164.413V27.2515H168.33V27.2175Z" fill="black"/>
<path fill-rule="evenodd" clip-rule="evenodd" d="M180.592 17.0082H186.553V38.3088H180.592V17.0082Z" fill="black"/>
<path fill-rule="evenodd" clip-rule="evenodd" d="M189.073 27.6585C189.073 21.4515 193.876 16.5673 200.348 16.5673C204.707 16.5673 207.432 18.4667 209.34 21.0784L205.014 24.4363C203.788 22.91 202.357 21.9602 200.314 21.9602C197.316 21.9602 195.204 24.4702 195.204 27.6585C195.204 30.8468 197.316 33.3567 200.314 33.3567C202.528 33.3567 203.856 32.3053 205.15 30.779L209.612 33.9333C207.603 36.7146 204.878 38.7497 200.143 38.7497C194.012 38.7497 189.073 34.069 189.073 27.6585Z" fill="black"/>
<path fill-rule="evenodd" clip-rule="evenodd" d="M218.877 16.8725H224.599L233.693 38.3088H227.324L225.757 34.5099H217.514L215.982 38.3088H209.748L218.877 16.8725ZM224.088 29.8971L221.704 23.8257L219.286 29.8971H224.088Z" fill="black"/>
<path fill-rule="evenodd" clip-rule="evenodd" d="M42.7808 2.13683C43.8707 2.13683 44.7563 3.0187 44.7563 4.10408V39.4807C44.7563 43.0082 42.6786 46.2982 39.5109 47.8246L23.4341 55.5579L7.3572 47.8246C4.15545 46.2982 2.11179 43.0082 2.11179 39.4807V4.07017C2.11179 2.98479 2.99738 2.10292 4.08733 2.10292H42.7808V2.13683ZM42.7808 0.101746H4.05327C1.8393 0.101746 0.0340576 1.89941 0.0340576 4.10408V39.4807C0.0340576 43.7883 2.55458 47.7906 6.43755 49.6561L23.4 57.8304L40.3624 49.6561C44.2454 47.7906 46.7659 43.7883 46.7659 39.4807V4.07017C46.7659 1.86549 44.9948 0.101746 42.7808 0.101746Z" fill="#F01616"/>
<path fill-rule="evenodd" clip-rule="evenodd" d="M38.8978 46.6374L23.4 54.0994L7.9022 46.6374C5.14325 45.3146 3.37207 42.4994 3.37207 39.4468V4.74853C3.37207 4.00233 3.98517 3.42572 4.70045 3.42572H42.0655C42.8149 3.42572 43.3939 4.03625 43.3939 4.74853V39.4468C43.428 42.4994 41.6908 45.3146 38.8978 46.6374Z" fill="#F01616"/>
<path fill-rule="evenodd" clip-rule="evenodd" d="M38.5912 9.09006H36.8201H35.2873V10.4129H32.4602L31.0297 11.8374V16.8912H24.7965V15.3649H26.6358L28.0664 13.9404V11.1252H29.3947V9.59884V7.83509V6.30878H27.862H25.4777H23.945V7.83509V9.59884V11.1252H25.2733V12.6175H21.5266V11.1252H22.855V9.59884V7.83509V6.30878H21.3223H18.938H17.4052V7.83509V9.59884V11.1252H18.7336V13.9404L20.1642 15.3649H22.0035V16.8912H15.7703V11.8374L14.3397 10.4129H11.5126V9.09006H9.97989H8.20872H6.67596V10.6164V12.9906V14.517H8.20872H9.97989H11.5126V13.1942H13.0113V16.9252H11.5126V15.6023H9.97989H8.20872H6.67596V17.1287V19.5029V21.0292H8.20872H9.97989H11.5126V19.7064H13.0113V23.4374H11.5126V22.0468H9.97989H8.20872H6.67596V23.5731V25.9474V27.4737H8.20872H9.97989H11.5126V26.117H14.3397L15.7703 24.6924V19.6386H18.8358V31.2047H15.3616L13.931 32.6292V35.5801H12.0917L10.6611 37.0047V39.8199H9.33273V41.3462V43.1099V44.6363H10.8655H13.2498H14.7825V43.076V41.3123V39.786H13.4541V38.3275H17.2009V39.8199H15.8725V41.3462V43.1099V44.6363H17.3712H19.7554H21.2882V43.076V41.3123V39.786H19.9598V36.9708L18.5292 35.5462H16.6899V33.9181H30.1441V35.5462H28.3048L26.8742 36.9708V39.786H25.5458V41.3123V43.076V44.6023H27.0786H29.4629H30.9956V43.076V41.3123V39.786H29.6332V38.3275H33.3799V39.8199H32.0515V41.3462V43.1099V44.6363H33.5843H35.9685H37.5013V43.076V41.3123V39.786H36.1729V36.9708L34.7423 35.5462H32.903V32.5953L31.4725 31.1708H27.9982V19.6386H31.0637V24.6924L32.4943 26.117H35.3214V27.4398H36.8541H38.6253H40.1581V25.9135V23.5392V22.0468H38.6253H36.8541H35.3214V23.3696H33.8227V19.6386H35.3214V20.9614H36.8541H38.6253H40.1581V19.4351V17.0608V15.5345H38.6253H36.8541H35.3214V16.8573H33.8227V13.1263H35.3214V14.4491H36.8541H38.6253H40.1581V12.9228V10.5485V9.02223H38.5912V9.09006ZM25.4777 7.86901H27.862V9.63275H25.4777V7.86901ZM18.972 7.86901H21.3563V9.63275H18.972V7.86901ZM10.014 12.9906H8.24278V10.6164H10.014V12.9906ZM10.014 19.469H8.24278V17.0947H10.014V19.469ZM10.014 25.9135H8.24278V23.5392H10.014V25.9135ZM13.2498 43.076H10.8655V41.3123H13.2498V43.076ZM19.7554 43.076H17.3712V41.3123H19.7554V43.076ZM29.4629 43.076H27.0786V41.3123H29.4629V43.076ZM35.9345 43.076H33.5502V41.3123H35.9345V43.076ZM25.2393 31.2047H21.5947V19.6386H25.2733V31.2047H25.2393ZM36.8201 23.5392H38.5912V25.9135H36.8201V23.5392ZM36.8201 17.0947H38.5912V19.469H36.8201V17.0947ZM38.5912 12.9906H36.8201V10.6164H38.5912V12.9906Z" fill="white"/>
</svg>
